<svg width="13" height="13" viewBox="0 0 13 13" fill="none" xmlns="http://www.w3.org/2000/svg">
<path d="M6.33334 0.659668C3.01966 0.659668 0.333344 3.34598 0.333344 6.65967C0.333344 9.97354 3.01966 12.6597 6.33334 12.6597C9.64722 12.6597 12.3333 9.97354 12.3333 6.65967C12.3333 3.34598 9.64722 0.659668 6.33334 0.659668ZM6.33334 11.9215C3.43853 11.9215 1.08334 9.55448 1.08334 6.65964C1.08334 3.76483 3.43853 1.40964 6.33334 1.40964C9.22816 1.40964 11.5833 3.76484 11.5833 6.65964C11.5833 9.55445 9.22816 11.9215 6.33334 11.9215ZM8.72791 4.46423L5.20758 8.00667L3.62227 6.42136C3.47583 6.27492 3.23846 6.27492 3.09183 6.42136C2.94539 6.56779 2.94539 6.80517 3.09183 6.95161L4.94789 8.80786C5.09433 8.95411 5.33171 8.95411 5.47833 8.80786C5.49521 8.79098 5.50966 8.77259 5.52278 8.75348L9.25853 4.99466C9.40478 4.84822 9.40478 4.61084 9.25853 4.46423C9.11191 4.31779 8.87453 4.31779 8.72791 4.46423Z" fill="white"/>
</svg>
