<svg width="24" height="24" viewBox="0 0 24 24" fill="none" xmlns="http://www.w3.org/2000/svg">
<g clip-path="url(#clip0_29_4811)">
<path d="M8.30793 11.4058V23.077C8.30794 23.2344 8.34819 23.3892 8.42488 23.5266C8.50156 23.6641 8.61212 23.7797 8.74606 23.8624C8.87999 23.9451 9.03284 23.9921 9.19009 23.9991C9.34734 24.0061 9.50376 23.9727 9.64449 23.9022L15.1827 21.133C15.3358 21.0563 15.4646 20.9384 15.5546 20.7927C15.6445 20.647 15.6922 20.4791 15.6922 20.3078V11.4058L23.7909 1.50876C23.8678 1.41493 23.9254 1.30689 23.9605 1.1908C23.9956 1.07471 24.0075 0.952843 23.9955 0.832158C23.9835 0.711473 23.9478 0.594332 23.8905 0.487426C23.8333 0.380519 23.7555 0.28594 23.6617 0.209088C23.5679 0.132235 23.4598 0.0746157 23.3437 0.039518C23.2277 0.00442021 23.1058 -0.00746814 22.9851 0.00453183C22.8644 0.0165318 22.7473 0.0521851 22.6404 0.109456C22.5335 0.166727 22.4389 0.244494 22.3621 0.338316L14.0547 10.492C13.9197 10.6571 13.846 10.8639 13.8461 11.0772V19.7373L10.154 21.5835V11.0772C10.1542 10.8639 10.0805 10.6571 9.9454 10.492L2.87126 1.8466H17.5383C17.7831 1.8466 18.0179 1.74934 18.191 1.57624C18.3641 1.40313 18.4613 1.16835 18.4613 0.923536C18.4613 0.678725 18.3641 0.443942 18.191 0.270834C18.0179 0.0977271 17.7831 0.000476295 17.5383 0.000476295H0.923651C0.748791 0.000359636 0.577494 0.0499161 0.429703 0.143376C0.281913 0.236836 0.163709 0.370354 0.088854 0.528386C0.0139985 0.686419 -0.0144293 0.862464 0.00688039 1.03603C0.0281901 1.20959 0.0983606 1.37353 0.209222 1.50876L8.30793 11.4058Z" fill="white"/>
</g>
<defs>
<clipPath id="clip0_29_4811">
<rect width="24" height="24" fill="white"/>
</clipPath>
</defs>
</svg>
