<svg width="16" height="17" viewBox="0 0 16 17" fill="none" xmlns="http://www.w3.org/2000/svg">
<g clip-path="url(#clip0_31_10580)">
<path d="M5.49154 0.937973C3.84057 1.4991 2.41678 2.56415 1.4293 3.97667C0.441816 5.38919 -0.0573093 7.07474 0.00523637 8.78572C0.067782 10.4967 0.688702 12.143 1.77679 13.4826C2.86488 14.8223 4.36279 15.7849 6.0505 16.2288C7.41876 16.5747 8.8523 16.5899 10.2279 16.2731C11.474 15.9989 12.6261 15.4123 13.5713 14.5707C14.5551 13.6682 15.2692 12.5199 15.6368 11.2495C16.0362 9.86796 16.1073 8.41512 15.8446 7.00247H8.16113V10.1251H12.6109C12.522 10.6232 12.3314 11.0985 12.0506 11.5227C11.7698 11.9469 11.4045 12.3113 10.9766 12.5939C10.4333 12.9462 9.82076 13.1832 9.17837 13.2896C8.53414 13.4069 7.87333 13.4069 7.2291 13.2896C6.5761 13.1574 5.95838 12.8934 5.41537 12.5143C4.54291 11.9092 3.88781 11.0496 3.54356 10.0581C3.19358 9.04805 3.19358 7.95308 3.54356 6.94302C3.78861 6.23503 4.1937 5.59041 4.72861 5.05727C5.34075 4.43596 6.11573 3.99184 6.96854 3.77365C7.82134 3.55545 8.71901 3.57161 9.56306 3.82035C10.2225 4.01856 10.8254 4.36505 11.3239 4.83215C11.8256 4.34311 12.3265 3.85281 12.8265 3.36124C13.0847 3.09691 13.3661 2.84522 13.6204 2.57456C12.8594 1.88087 11.9663 1.34106 10.9921 0.986033C9.21801 0.354909 7.27683 0.337948 5.49154 0.937973Z" fill="white"/>
</g>
<defs>
<clipPath id="clip0_31_10580">
<rect width="16" height="16" fill="white" transform="translate(0 0.5)"/>
</clipPath>
</defs>
</svg>
