<svg width="23" height="24" viewBox="0 0 23 24" fill="none" xmlns="http://www.w3.org/2000/svg">
<path d="M19.9134 7.57572C19.9226 7.76202 19.9261 7.95062 19.9261 8.13692C19.9261 13.8754 15.5595 20.4902 7.57506 20.4902C5.12211 20.4902 2.84166 19.7715 0.920013 18.5387C2.05665 18.6761 3.20922 18.5882 4.31187 18.28C5.41451 17.9718 6.44561 17.4493 7.34621 16.7424C6.44049 16.7252 5.56276 16.4255 4.83574 15.8851C4.10871 15.3447 3.56874 14.5906 3.29131 13.7282C3.94228 13.85 4.61225 13.8244 5.25206 13.6535C4.26952 13.4542 3.38607 12.9214 2.75144 12.1453C2.11681 11.3692 1.77003 10.3976 1.76986 9.39502V9.34097C2.37269 9.67631 3.0469 9.8628 3.73636 9.88492C2.81622 9.27149 2.16486 8.33002 1.91524 7.25269C1.66562 6.17535 1.83656 5.04336 2.39316 4.08777C3.48312 5.4292 4.84307 6.52634 6.38467 7.30794C7.92627 8.08954 9.61505 8.53811 11.3413 8.62452C11.2666 8.29978 11.2292 7.96758 11.2298 7.63437C11.2298 7.06447 11.342 6.50016 11.5602 5.97366C11.7783 5.44716 12.098 4.96878 12.501 4.56586C12.904 4.16293 13.3825 3.84335 13.9091 3.62537C14.4356 3.40738 15 3.29526 15.5699 3.29542C16.1638 3.29445 16.7516 3.41552 17.2968 3.65113C17.842 3.88674 18.333 4.23185 18.7393 4.66507C19.7112 4.47267 20.6433 4.11646 21.4958 3.61167C21.1716 4.617 20.4932 5.47032 19.5868 6.01287C20.4473 5.91085 21.2877 5.6806 22.08 5.32977C21.4979 6.20197 20.7641 6.96267 19.9134 7.57572Z" fill="white"/>
</svg>
