<svg width="32" height="32" viewBox="0 0 32 32" fill="none" xmlns="http://www.w3.org/2000/svg">
<path d="M16 2C19.713 2 23.274 3.475 25.8995 6.1005C28.525 8.72601 30 12.287 30 16C30 19.713 28.525 23.274 25.8995 25.8995C23.274 28.525 19.713 30 16 30C12.287 30 8.72601 28.525 6.1005 25.8995C3.475 23.274 2 19.713 2 16C2 12.287 3.475 8.72601 6.1005 6.1005C8.72601 3.475 12.287 2 16 2ZM16 28C19.1826 28 22.2348 26.7357 24.4853 24.4853C26.7357 22.2348 28 19.1826 28 16C28 12.8174 26.7357 9.76516 24.4853 7.51472C22.2348 5.26428 19.1826 4 16 4C12.8174 4 9.76516 5.26428 7.51472 7.51472C5.26428 9.76516 4 12.8174 4 16C4 19.1826 5.26428 22.2348 7.51472 24.4853C9.76516 26.7357 12.8174 28 16 28ZM17.5 22.5C17.5 22.8978 17.342 23.2794 17.0607 23.5607C16.7794 23.842 16.3978 24 16 24C15.6022 24 15.2206 23.842 14.9393 23.5607C14.658 23.2794 14.5 22.8978 14.5 22.5C14.5 22.1022 14.658 21.7206 14.9393 21.4393C15.2206 21.158 15.6022 21 16 21C16.3978 21 16.7794 21.158 17.0607 21.4393C17.342 21.7206 17.5 22.1022 17.5 22.5ZM16 8C16.2652 8 16.5196 8.10536 16.7071 8.29289C16.8946 8.48043 17 8.73478 17 9V18C17 18.2652 16.8946 18.5196 16.7071 18.7071C16.5196 18.8946 16.2652 19 16 19C15.7348 19 15.4804 18.8946 15.2929 18.7071C15.1054 18.5196 15 18.2652 15 18V9C15 8.73478 15.1054 8.48043 15.2929 8.29289C15.4804 8.10536 15.7348 8 16 8Z" fill="#262626"/>
</svg>
